<svg width="1080" height="1080" viewBox="0 0 1080 1080" fill="none" xmlns="http://www.w3.org/2000/svg">
<path d="M900.017 0H179.984C80.5813 0 0 80.5814 0 179.984V900.016C0 999.419 80.5813 1080 179.984 1080H900.017C999.419 1080 1080 999.419 1080 900.016V179.984C1080 80.5814 999.419 0 900.017 0Z" fill="#F2FF66"/>
<path d="M649.046 806.521V671.657C649.046 611.827 600.274 563.154 540.246 563.154C480.219 563.154 431.447 611.728 431.447 671.657V806.521H383.563V671.657C383.563 611.827 334.791 563.154 274.763 563.154H243.861V515.369H274.566C334.593 515.369 383.365 466.794 383.365 406.865V273.284H431.249V406.668C431.249 466.498 480.022 515.171 540.049 515.171C600.076 515.171 648.849 466.596 648.849 406.668V273.284H696.732V406.668C696.732 466.498 745.505 515.171 805.532 515.171H836.237V562.956H805.532C745.505 562.956 696.732 611.531 696.732 671.46V806.324H648.849L649.046 806.521Z" fill="#191314"/>
</svg>
