<svg width="2000" height="806" viewBox="0 0 2000 806" fill="none" xmlns="http://www.w3.org/2000/svg">
<path d="M582.819 375.424C428.913 351.182 273.784 351.293 119.878 375.424V0H0V805.783H119.878V497.192C273.672 470.837 429.024 470.948 582.819 497.192V805.783H702.697V0H582.819V375.424Z" fill="#191314"/>
<path d="M1016.51 0H896.636V805.783H1016.51V0Z" fill="#191314"/>
<path d="M2000 0H1880.12V805.783H2000V0Z" fill="#191314"/>
<path d="M1188.21 273.117V805.783H1308.09V507.089H1686.18V387.212H1308.09V273.117C1308.09 188.602 1376.81 119.878 1461.33 119.878H1741.67V0H1461.33C1310.76 0 1188.21 122.547 1188.21 273.117Z" fill="#191314"/>
</svg>
