<svg width="80" height="80" viewBox="0 0 80 80" fill="none" xmlns="http://www.w3.org/2000/svg">
<rect width="80" height="80" rx="8" fill="#F2FF66"/>
<path d="M46.9935 57.0999V48.4512C46.9935 44.6103 43.8656 41.4913 40.0137 41.4913C36.1618 41.4913 33.0338 44.6103 33.0338 48.4512V57.0999H29.9605V48.4512C29.9605 44.6103 26.8325 41.4913 22.9806 41.4913H21V38.4268H22.9669C26.8188 38.4268 29.9468 35.3078 29.9468 31.4669V22.8999H33.0201V31.4533C33.0201 35.2942 36.1481 38.4132 40 38.4132C43.8519 38.4132 46.9799 35.2942 46.9799 31.4533V22.8999H50.0532V31.4533C50.0532 35.2942 53.1812 38.4132 57.0331 38.4132H59V41.4777H57.0331C53.1812 41.4777 50.0532 44.5967 50.0532 48.4375V57.0863H46.9799L46.9935 57.0999Z" fill="#191314"/>
</svg>
