<?xml version="1.0" encoding="UTF-8"?>
<svg id="Layer_1" data-name="Layer 1" xmlns="http://www.w3.org/2000/svg" viewBox="0 0 431.83 164">
  <defs>
    <style>
      .cls-1 {
        fill: #fff;
      }

      .cls-2 {
        fill: #eceae5;
      }

      .cls-3 {
        fill: #191314;
      }
    </style>
  </defs>
  <rect class="cls-2" y="0" width="432" height="164" rx="12" ry="12"/>
  <rect class="cls-1" x="20" y="20" width="217" height="124" rx="4" ry="4"/>
  <path class="cls-3" d="M56.92,80.52c0-.23-.05-.43-.14-.6-.09-.17-.21-.32-.36-.43-.15-.11-.33-.2-.53-.26s-.41-.09-.63-.09c-.19,0-.38.03-.55.08-.17.05-.33.12-.47.21-.13.09-.24.21-.32.35-.08.13-.12.29-.12.47v.06c0,.19.04.36.12.5.08.13.2.25.35.35.16.09.36.17.59.24.23.06.51.11.82.16.73.11,1.27.33,1.62.65.35.31.52.74.52,1.27v.12c0,.3-.05.58-.16.83-.1.25-.25.46-.46.64-.2.18-.45.32-.75.42-.3.1-.65.15-1.04.15-.45,0-.84-.06-1.19-.19-.34-.13-.63-.31-.86-.54-.23-.23-.4-.5-.52-.81-.12-.31-.18-.65-.18-1.02v-.3h.84v.24c0,.61.17,1.07.5,1.38.34.31.81.46,1.41.46.52,0,.91-.11,1.17-.34.27-.23.4-.54.4-.92v-.06c0-.37-.14-.65-.41-.84-.27-.19-.7-.33-1.31-.42-.35-.05-.67-.12-.96-.21-.28-.1-.52-.23-.72-.38-.2-.16-.35-.35-.46-.57s-.16-.48-.16-.78v-.12c0-.27.06-.52.17-.75.11-.23.27-.42.47-.59.21-.17.45-.29.73-.38.29-.09.6-.14.94-.14.39,0,.74.06,1.05.17.31.11.58.27.79.46.21.19.37.41.48.67.11.25.17.52.17.8v.42h-.84v-.36ZM60.13,78.5h4.92v.78h-2.04v6.22h-.84v-6.22h-2.04v-.78ZM71.41,83.76h-3l-.51,1.74h-.9l2.12-7h1.58l2.12,7h-.9l-.51-1.74ZM69.85,78.86l-1.21,4.12h2.54l-1.21-4.12h-.12ZM74.75,84.72h.6v-5.44h-.6v-.78h2.83c.33,0,.63.05.88.14.26.09.48.22.65.38.18.16.31.35.4.58.09.22.14.46.14.72v.12c0,.19-.03.37-.09.53-.06.16-.14.3-.25.43-.11.13-.23.24-.38.33-.14.09-.29.15-.46.2v.12c.33.09.61.27.84.54.23.26.34.58.34.96v.12c0,.26-.05.5-.14.73-.09.22-.22.41-.4.58-.17.16-.39.29-.65.38-.25.09-.55.14-.88.14h-2.83v-.78ZM76.19,84.72h1.33c.39,0,.71-.1.96-.29.25-.2.37-.47.37-.82v-.06c0-.36-.12-.64-.35-.85-.23-.21-.55-.32-.95-.32h-1.36v2.34ZM76.19,81.6h1.36c.4,0,.72-.1.95-.31.23-.21.35-.49.35-.85v-.06c0-.34-.12-.61-.37-.8-.25-.2-.57-.3-.96-.3h-1.33v2.32ZM82.37,78.5h.84v6.22h3.66v.78h-4.5v-7ZM89.76,78.5h4.24v.78h-3.4v2.32h3.34v.78h-3.34v2.34h3.46v.78h-4.3v-7ZM99.25,84.86c.29,0,.53-.05.73-.14.21-.1.37-.23.5-.39.13-.17.23-.35.29-.56.07-.21.1-.44.1-.67v-.12h.84v.12c0,.35-.05.69-.16,1-.11.31-.26.58-.47.81-.21.23-.46.41-.77.54-.31.13-.66.19-1.06.19-.77,0-1.38-.24-1.81-.73-.43-.49-.65-1.2-.65-2.13v-1.56c0-.91.22-1.61.65-2.11.43-.5,1.04-.75,1.81-.75.4,0,.75.07,1.06.2.31.13.56.31.77.54.21.23.36.5.47.81.11.31.16.64.16.99v.12h-.84v-.12c0-.23-.04-.45-.11-.66-.06-.21-.16-.4-.29-.56-.13-.17-.29-.3-.49-.39-.2-.1-.44-.15-.73-.15-.54,0-.95.2-1.22.59-.27.39-.4.91-.4,1.55v1.44c0,.69.13,1.22.4,1.59.27.37.68.55,1.22.55ZM104.07,81.22c0-.91.22-1.61.65-2.11.43-.5,1.04-.75,1.81-.75s1.38.25,1.81.75c.43.5.65,1.2.65,2.11v1.56c0,.93-.22,1.64-.65,2.13-.43.49-1.04.73-1.81.73s-1.38-.24-1.81-.73c-.43-.49-.65-1.2-.65-2.13v-1.56ZM106.53,84.86c.54,0,.94-.18,1.21-.55.27-.37.41-.9.41-1.59v-1.44c0-.64-.14-1.16-.41-1.55-.27-.39-.67-.59-1.21-.59s-.95.2-1.22.59c-.27.39-.4.91-.4,1.55v1.44c0,.69.13,1.22.4,1.59.27.37.68.55,1.22.55ZM111.63,78.5h4.44v.78h-1.8v5.44h1.8v.78h-4.44v-.78h1.8v-5.44h-1.8v-.78ZM122.54,85.14h.12v-6.64h.84v7h-1.68l-2.02-6.64h-.12v6.64h-.84v-7h1.68l2.02,6.64ZM137.47,80.52c0-.23-.05-.43-.14-.6-.09-.17-.21-.32-.36-.43-.15-.11-.33-.2-.53-.26s-.41-.09-.63-.09c-.19,0-.38.03-.55.08-.17.05-.33.12-.47.21-.13.09-.24.21-.32.35-.08.13-.12.29-.12.47v.06c0,.19.04.36.12.5.08.13.2.25.35.35.16.09.36.17.59.24.23.06.51.11.82.16.73.11,1.27.33,1.62.65.35.31.52.74.52,1.27v.12c0,.3-.05.58-.16.83-.1.25-.25.46-.46.64-.2.18-.45.32-.75.42-.3.1-.65.15-1.04.15-.45,0-.84-.06-1.19-.19-.34-.13-.63-.31-.86-.54-.23-.23-.4-.5-.52-.81-.12-.31-.18-.65-.18-1.02v-.3h.84v.24c0,.61.17,1.07.5,1.38.34.31.81.46,1.41.46.52,0,.91-.11,1.17-.34.27-.23.4-.54.4-.92v-.06c0-.37-.14-.65-.41-.84-.27-.19-.7-.33-1.31-.42-.35-.05-.67-.12-.96-.21-.28-.1-.52-.23-.72-.38-.2-.16-.35-.35-.46-.57-.11-.22-.16-.48-.16-.78v-.12c0-.27.06-.52.17-.75.11-.23.27-.42.47-.59.21-.17.45-.29.73-.38.29-.09.6-.14.94-.14.39,0,.74.06,1.05.17.31.11.58.27.79.46.21.19.37.41.48.67.11.25.17.52.17.8v.42h-.84v-.36ZM141.02,78.5h4.24v.78h-3.4v2.32h3.34v.78h-3.34v2.34h3.46v.78h-4.3v-7ZM148.01,78.5h4.92v.78h-2.04v6.22h-.84v-6.22h-2.04v-.78ZM155.33,78.5h4.92v.78h-2.04v6.22h-.84v-6.22h-2.04v-.78ZM162.92,78.5h.84v6.22h3.66v.78h-4.5v-7ZM170.32,78.5h4.24v.78h-3.4v2.32h3.34v.78h-3.34v2.34h3.46v.78h-4.3v-7ZM177.16,78.5h1.6l.94,6.64h.12l.94-6.64h1.6v7h-.78v-6.64h-.12l-.94,6.64h-1.52l-.94-6.64h-.12v6.64h-.78v-7ZM184.96,78.5h4.24v.78h-3.4v2.32h3.34v.78h-3.34v2.34h3.46v.78h-4.3v-7ZM195.78,85.14h.12v-6.64h.84v7h-1.68l-2.02-6.64h-.12v6.64h-.84v-7h1.68l2.02,6.64ZM199.27,78.5h4.92v.78h-2.04v6.22h-.84v-6.22h-2.04v-.78Z"/>
  <path class="cls-3" d="M234.33,82c0,1.47,1.19,2.67,2.67,2.67s2.67-1.19,2.67-2.67-1.19-2.67-2.67-2.67-2.67,1.19-2.67,2.67ZM266.33,35c0,1.47,1.19,2.67,2.67,2.67s2.67-1.19,2.67-2.67-1.19-2.67-2.67-2.67-2.67,1.19-2.67,2.67ZM237,82.5h5v-1h-5v1ZM252.5,72v-27h-1v27h1ZM262,35.5h7v-1h-7v1ZM252.5,45c0-5.25,4.25-9.5,9.5-9.5v-1c-5.8,0-10.5,4.7-10.5,10.5h1ZM242,82.5c5.8,0,10.5-4.7,10.5-10.5h-1c0,5.25-4.25,9.5-9.5,9.5v1Z"/>
  <path class="cls-3" d="M234.33,82c0-1.47,1.19-2.67,2.67-2.67s2.67,1.19,2.67,2.67-1.19,2.67-2.67,2.67-2.67-1.19-2.67-2.67ZM266.33,129c0-1.47,1.19-2.67,2.67-2.67s2.67,1.19,2.67,2.67-1.19,2.67-2.67,2.67-2.67-1.19-2.67-2.67ZM237,81.5h5v1h-5v-1ZM252.5,92v27h-1v-27h1ZM262,128.5h7v1h-7v-1ZM252.5,119c0,5.25,4.25,9.5,9.5,9.5v1c-5.8,0-10.5-4.7-10.5-10.5h1ZM242,81.5c5.8,0,10.5,4.7,10.5,10.5h-1c0-5.25-4.25-9.5-9.5-9.5v-1Z"/>
  <path class="cls-3" d="M234.33,82c0,1.47,1.19,2.67,2.67,2.67s2.67-1.19,2.67-2.67-1.19-2.67-2.67-2.67-2.67,1.19-2.67,2.67ZM266.33,82c0,1.47,1.19,2.67,2.67,2.67s2.67-1.19,2.67-2.67-1.19-2.67-2.67-2.67-2.67,1.19-2.67,2.67ZM237,82.5h32v-1h-32v1Z"/>
  <rect class="cls-1" x="269" y="20" width="140" height="31" rx="4" ry="4"/>
  <path class="cls-3" d="M299.89,38.22h.6v-5.44h-.6v-.78h2.83c.33,0,.63.05.88.14.26.09.48.22.65.38.18.16.31.35.4.58.09.22.14.46.14.72v.12c0,.19-.03.37-.09.53-.06.16-.14.3-.25.43-.11.13-.23.24-.38.33-.14.09-.29.15-.46.2v.12c.33.09.61.27.84.54.23.26.34.58.34.96v.12c0,.26-.05.5-.14.73-.09.22-.22.41-.4.58-.17.16-.39.29-.65.38-.25.09-.55.14-.88.14h-2.83v-.78ZM301.33,38.22h1.33c.39,0,.71-.1.96-.29.25-.2.37-.47.37-.82v-.06c0-.36-.12-.64-.35-.85-.23-.21-.55-.32-.95-.32h-1.36v2.34ZM301.33,35.1h1.36c.4,0,.72-.1.95-.31.23-.21.35-.49.35-.85v-.06c0-.34-.12-.61-.37-.8-.25-.2-.57-.3-.96-.3h-1.33v2.32ZM311.9,39h-.84v-2.34c0-.17-.04-.31-.12-.4-.08-.09-.22-.14-.42-.14h-2.18v2.88h-.84v-7h2.5c.36,0,.67.05.94.16.27.1.49.24.66.41.18.17.31.38.4.61.09.23.14.47.14.72v.3c0,.26-.07.52-.22.78-.14.26-.36.46-.66.6v.12c.2.03.36.11.47.24.11.13.17.31.17.54v2.52ZM308.34,35.34h1.56c.47,0,.82-.1,1.05-.3.23-.21.35-.51.35-.9v-.18c0-.35-.12-.64-.35-.85-.23-.22-.58-.33-1.05-.33h-1.56v2.56ZM318.53,37.26h-3l-.51,1.74h-.9l2.12-7h1.58l2.12,7h-.9l-.51-1.74ZM316.97,32.36l-1.21,4.12h2.54l-1.21-4.12h-.12ZM322.06,32h4.68v1.26l-4.2,4.84v.12h4.32v.78h-5.04v-1.26l4.2-4.84v-.12h-3.96v-.78ZM329.45,32h4.44v.78h-1.8v5.44h1.8v.78h-4.44v-.78h1.8v-5.44h-1.8v-.78ZM336.81,32h.84v6.22h3.66v.78h-4.5v-7ZM351.15,38.22h.6v-5.44h-.6v-.78h2.83c.33,0,.63.05.88.14.26.09.48.22.65.38.18.16.31.35.4.58.09.22.14.46.14.72v.12c0,.19-.03.37-.09.53-.06.16-.14.3-.25.43-.11.13-.23.24-.38.33-.14.09-.29.15-.46.2v.12c.33.09.61.27.84.54.23.26.34.58.34.96v.12c0,.26-.05.5-.14.73-.09.22-.22.41-.4.58-.17.16-.39.29-.65.38-.25.09-.55.14-.88.14h-2.83v-.78ZM352.6,38.22h1.33c.39,0,.71-.1.96-.29.25-.2.37-.47.37-.82v-.06c0-.36-.12-.64-.35-.85-.23-.21-.55-.32-.95-.32h-1.36v2.34ZM352.6,35.1h1.36c.4,0,.72-.1.95-.31.23-.21.35-.49.35-.85v-.06c0-.34-.12-.61-.37-.8-.25-.2-.57-.3-.96-.3h-1.33v2.32ZM362.47,37.26h-3l-.51,1.74h-.9l2.12-7h1.58l2.12,7h-.9l-.51-1.74ZM360.91,32.36l-1.21,4.12h2.54l-1.21-4.12h-.12ZM369.66,38.64h.12v-6.64h.84v7h-1.68l-2.02-6.64h-.12v6.64h-.84v-7h1.68l2.02,6.64ZM374.28,39h-.84v-7h.84v3.1h.23l2.69-3.1h1.04v.06l-2.9,3.38v.12l3.02,3.38v.06h-1.06l-2.79-3.12h-.23v3.12Z"/>
  <rect class="cls-1" x="269" y="66.5" width="140" height="31" rx="4" ry="4"/>
  <path class="cls-3" d="M300.26,78.5h4.24v.78h-3.4v2.32h3.34v.78h-3.34v2.34h3.46v.78h-4.3v-7ZM308.15,78.5v4.64c0,.57.13,1,.39,1.29.27.29.66.43,1.17.43s.9-.14,1.16-.43c.27-.29.4-.72.4-1.29v-4.64h.84v4.64c0,.81-.21,1.43-.64,1.86-.43.43-1.01.64-1.76.64s-1.33-.21-1.76-.64c-.43-.43-.64-1.05-.64-1.86v-4.64h.84ZM319.22,85.5h-.84v-2.34c0-.17-.04-.31-.12-.4-.08-.09-.22-.14-.42-.14h-2.18v2.88h-.84v-7h2.5c.36,0,.67.05.94.16.27.1.49.24.66.41.18.17.31.38.4.61.09.23.14.47.14.72v.3c0,.26-.07.52-.22.78-.14.26-.36.46-.66.6v.12c.2.03.36.11.47.24.11.13.17.31.17.54v2.52ZM315.66,81.84h1.56c.47,0,.82-.1,1.05-.3.23-.21.35-.51.35-.9v-.18c0-.35-.12-.64-.35-.85-.23-.22-.58-.33-1.05-.33h-1.56v2.56ZM321.89,81.22c0-.91.22-1.61.65-2.11.43-.5,1.04-.75,1.81-.75s1.38.25,1.81.75c.43.5.65,1.2.65,2.11v1.56c0,.93-.22,1.64-.65,2.13-.43.49-1.04.73-1.81.73s-1.38-.24-1.81-.73c-.43-.49-.65-1.2-.65-2.13v-1.56ZM324.35,84.86c.54,0,.94-.18,1.21-.55.27-.37.41-.9.41-1.59v-1.44c0-.64-.14-1.16-.41-1.55-.27-.39-.67-.59-1.21-.59s-.95.2-1.22.59c-.27.39-.4.91-.4,1.55v1.44c0,.69.13,1.22.4,1.59.27.37.68.55,1.22.55ZM330.3,82.62v2.88h-.84v-7h2.5c.36,0,.67.05.94.16.27.1.49.24.66.41.18.17.31.38.4.61.09.23.14.47.14.72v.3c0,.25-.05.5-.14.73-.09.23-.22.44-.4.62-.18.17-.4.31-.67.42-.27.1-.58.15-.93.15h-1.66ZM330.3,81.84h1.56c.93,0,1.4-.4,1.4-1.2v-.18c0-.35-.12-.64-.35-.85-.23-.22-.58-.33-1.05-.33h-1.56v2.56ZM336.88,78.5h4.24v.78h-3.4v2.32h3.34v.78h-3.34v2.34h3.46v.78h-4.3v-7ZM351.15,84.72h.6v-5.44h-.6v-.78h2.83c.33,0,.63.05.88.14.26.09.48.22.65.38.18.16.31.35.4.58.09.22.14.46.14.72v.12c0,.19-.03.37-.09.53s-.14.3-.25.43c-.11.13-.23.24-.38.33-.14.09-.29.15-.46.2v.12c.33.09.61.27.84.54.23.26.34.58.34.96v.12c0,.26-.05.5-.14.73-.09.22-.22.41-.4.58-.17.16-.39.29-.65.38-.25.09-.55.14-.88.14h-2.83v-.78ZM352.6,84.72h1.33c.39,0,.71-.1.96-.29.25-.2.37-.47.37-.82v-.06c0-.36-.12-.64-.35-.85-.23-.21-.55-.32-.95-.32h-1.36v2.34ZM352.6,81.6h1.36c.4,0,.72-.1.95-.31.23-.21.35-.49.35-.85v-.06c0-.34-.12-.61-.37-.8-.25-.2-.57-.3-.96-.3h-1.33v2.32ZM362.47,83.76h-3l-.51,1.74h-.9l2.12-7h1.58l2.12,7h-.9l-.51-1.74ZM360.91,78.86l-1.21,4.12h2.54l-1.21-4.12h-.12ZM369.66,85.14h.12v-6.64h.84v7h-1.68l-2.02-6.64h-.12v6.64h-.84v-7h1.68l2.02,6.64ZM374.28,85.5h-.84v-7h.84v3.1h.23l2.69-3.1h1.04v.06l-2.9,3.38v.12l3.02,3.38v.06h-1.06l-2.79-3.12h-.23v3.12Z"/>
  <rect class="cls-1" x="269" y="113" width="140" height="31" rx="4" ry="4"/>
  <path class="cls-3" d="M311.81,125v4.64c0,.57.13,1,.39,1.29.27.29.66.43,1.17.43s.9-.14,1.16-.43c.27-.29.4-.72.4-1.29v-4.64h.84v4.64c0,.81-.21,1.43-.64,1.86-.43.43-1.01.64-1.76.64s-1.33-.21-1.76-.64c-.43-.43-.64-1.05-.64-1.86v-4.64h.84ZM319.99,131.44c0-.19.07-.36.2-.49.14-.14.31-.21.5-.21s.36.07.49.21c.14.13.21.3.21.49s-.07.36-.21.5c-.13.13-.3.2-.49.2s-.36-.07-.5-.2c-.13-.14-.2-.31-.2-.5ZM329.66,127.02c0-.23-.05-.43-.14-.6-.09-.17-.21-.32-.36-.43-.15-.11-.33-.2-.53-.26s-.41-.09-.63-.09c-.19,0-.38.03-.55.08-.17.05-.33.12-.47.21-.13.09-.24.21-.32.35-.08.13-.12.29-.12.47v.06c0,.19.04.36.12.5.08.13.2.25.35.35.16.09.36.17.59.24.23.06.51.11.82.16.73.11,1.27.33,1.62.65.35.31.52.74.52,1.27v.12c0,.3-.05.58-.16.83-.1.25-.25.46-.46.64-.2.18-.45.32-.75.42-.3.1-.65.15-1.04.15-.45,0-.84-.06-1.19-.19-.34-.13-.63-.31-.86-.54-.23-.23-.4-.5-.52-.81-.12-.31-.18-.65-.18-1.02v-.3h.84v.24c0,.61.17,1.07.5,1.38.34.31.81.46,1.41.46.52,0,.91-.11,1.17-.34.27-.23.4-.54.4-.92v-.06c0-.37-.14-.65-.41-.84-.27-.19-.7-.33-1.31-.42-.35-.05-.67-.12-.96-.21-.28-.1-.52-.23-.72-.38-.2-.16-.35-.35-.46-.57-.11-.22-.16-.48-.16-.78v-.12c0-.27.06-.52.17-.75s.27-.42.47-.59c.21-.17.45-.29.73-.38.29-.09.6-.14.94-.14.39,0,.74.06,1.05.17.31.11.58.27.79.46.21.19.37.41.48.67.11.25.17.52.17.8v.42h-.84v-.36ZM340.17,131.22h.6v-5.44h-.6v-.78h2.83c.33,0,.63.05.88.14.26.09.48.22.65.38.18.16.31.35.4.58.09.22.14.46.14.72v.12c0,.19-.03.37-.09.53s-.14.3-.25.43c-.11.13-.23.24-.38.33-.14.09-.29.15-.46.2v.12c.33.09.61.27.84.54.23.26.34.58.34.96v.12c0,.26-.05.5-.14.73-.09.22-.22.41-.4.58-.17.16-.39.29-.65.38-.25.09-.55.14-.88.14h-2.83v-.78ZM341.61,131.22h1.33c.39,0,.71-.1.96-.29.25-.2.37-.47.37-.82v-.06c0-.36-.12-.64-.35-.85-.23-.21-.55-.32-.95-.32h-1.36v2.34ZM341.61,128.1h1.36c.4,0,.72-.1.95-.31s.35-.49.35-.85v-.06c0-.34-.12-.61-.37-.8-.25-.2-.57-.3-.96-.3h-1.33v2.32ZM351.48,130.26h-3l-.51,1.74h-.9l2.12-7h1.58l2.12,7h-.9l-.51-1.74ZM349.92,125.36l-1.21,4.12h2.54l-1.21-4.12h-.12ZM358.68,131.64h.12v-6.64h.84v7h-1.68l-2.02-6.64h-.12v6.64h-.84v-7h1.68l2.02,6.64ZM363.3,132h-.84v-7h.84v3.1h.23l2.69-3.1h1.04v.06l-2.9,3.38v.12l3.02,3.38v.06h-1.06l-2.79-3.12h-.23v3.12Z"/>
</svg>