<svg width="14" height="14" viewBox="0 0 14 14" fill="none" xmlns="http://www.w3.org/2000/svg">
<mask id="mask0_586_409" style="mask-type:alpha" maskUnits="userSpaceOnUse" x="0" y="0" width="14" height="14">
<rect width="14" height="14" fill="#D9D9D9"/>
</mask>
<g mask="url(#mask0_586_409)">
<path d="M4.11702 9.77067V8.89567H7.94792C7.71458 8.69296 7.53788 8.46634 7.41781 8.2158C7.29784 7.96525 7.21914 7.70577 7.18171 7.43734H5.21631V6.56234H7.18171C7.22662 6.28642 7.30907 6.02319 7.42904 5.77265C7.54911 5.52211 7.72207 5.29923 7.94792 5.104H1.89583V4.229H9.91667C10.6833 4.229 11.3367 4.49909 11.877 5.03925C12.4173 5.57942 12.6875 6.23266 12.6875 6.99896C12.6875 7.76537 12.4173 8.41889 11.877 8.95955C11.3367 9.5003 10.6833 9.77067 9.91667 9.77067H4.11702ZM9.91667 8.89567C10.4402 8.89567 10.887 8.71056 11.2572 8.34034C11.6274 7.97021 11.8125 7.52338 11.8125 6.99984C11.8125 6.4763 11.6274 6.02946 11.2572 5.65934C10.887 5.28912 10.4402 5.104 9.91667 5.104C9.39312 5.104 8.94629 5.28912 8.57617 5.65934C8.20594 6.02946 8.02083 6.4763 8.02083 6.99984C8.02083 7.52338 8.20594 7.97021 8.57617 8.34034C8.94629 8.71056 9.39312 8.89567 9.91667 8.89567ZM1.3125 7.43734V6.56234H4.63298V7.43734H1.3125ZM1.89583 9.77067V8.89567H3.53369V9.77067H1.89583Z" fill="#191314"/>
</g>
</svg>
