<?xml version="1.0" encoding="UTF-8"?>
<svg id="Layer_1" xmlns="http://www.w3.org/2000/svg" version="1.1" viewBox="0 0 131 50">
  <!-- Generator: Adobe Illustrator 29.0.1, SVG Export Plug-In . SVG Version: 2.1.0 Build 192)  -->
  <defs>
    <style>
      .st0 {
        fill: #fff;
      }
    </style>
  </defs>
  <path class="st0" d="M74.9,21.1c-.8.5-1.5,1.2-1.9,2-.5.8-.7,1.7-.7,2.7,0,1.1.3,2.1.9,3s1.4,1.6,2.4,2c-.4,1.2-1,2.4-1.7,3.5-1.1,1.5-2.1,3-3.8,3s-2.1-1-4-1-2.5,1-4.1,1-2.6-1.4-3.8-3.1c-1.6-2.4-2.5-5.2-2.6-8.1,0-4.8,3.1-7.3,6.2-7.3s3,1.1,4,1.1,2.5-1.1,4.3-1.1c.9,0,1.9.2,2.7.6.8.4,1.6,1.1,2.1,1.8ZM69.1,16.6c.8-1,1.3-2.2,1.3-3.4,0-.2,0-.3,0-.5-1.4.1-2.7.8-3.6,1.9-.8.9-1.3,2.1-1.4,3.3,0,.1,0,.3,0,.4.1,0,.2,0,.3,0,.6,0,1.3-.2,1.8-.5.6-.3,1.1-.7,1.5-1.2Z"/>
</svg>