<svg width="42" height="42" viewBox="0 0 42 42" fill="none" xmlns="http://www.w3.org/2000/svg">
<rect width="42" height="42" rx="8" fill="#ECEAE5"/>
<mask id="mask0_86_2376" style="mask-type:alpha" maskUnits="userSpaceOnUse" x="5" y="5" width="32" height="32">
<rect x="5" y="5" width="32" height="32" fill="#D9D9D9"/>
</mask>
<g mask="url(#mask0_86_2376)">
<path d="M9.66663 32.3334V30.6154L11 29.282V32.3334H9.66663ZM15 32.3334V25.282L16.3333 23.9487V32.3334H15ZM20.3333 32.3334V23.9487L21.6666 25.3154V32.3334H20.3333ZM25.6666 32.3334V25.3154L27 23.982V32.3334H25.6666ZM31 32.3334V19.9487L32.3333 18.6154V32.3334H31ZM9.66663 24.4847V22.6154L18.3333 13.9487L23.6666 19.282L32.3333 10.6154V12.4847L23.6666 21.1514L18.3333 15.818L9.66663 24.4847Z" fill="#1C1B1F"/>
</g>
</svg>
