<svg width="314" height="362" viewBox="0 0 314 362" fill="none" xmlns="http://www.w3.org/2000/svg">
<rect x="268" y="240" width="46" height="46" rx="8" fill="white"/>
<g clip-path="url(#clip0_859_1292)">
<path d="M291 275C297.627 275 303 269.627 303 263C303 256.373 297.627 251 291 251C284.373 251 279 256.373 279 263C279 269.627 284.373 275 291 275Z" fill="#D80027"/>
<path d="M297.261 260.913H293.087V256.739H288.913V260.913H284.739V265.087H288.913V269.261H293.087V265.087H297.261V260.913Z" fill="#F0F0F0"/>
</g>
<rect x="268" y="76" width="46" height="46" rx="8" fill="white"/>
<g clip-path="url(#clip1_859_1292)">
<path d="M291 111C297.627 111 303 105.627 303 99C303 92.3726 297.627 87 291 87C284.373 87 279 92.3726 279 99C279 105.627 284.373 111 291 111Z" fill="#F0F0F0"/>
<path d="M303 98.9999C303 93.8404 299.743 89.4419 295.174 87.7463V110.254C299.743 108.558 303 104.16 303 98.9999Z" fill="#D80027"/>
<path d="M279 98.9999C279 104.16 282.257 108.558 286.826 110.254V87.7463C282.257 89.4419 279 93.8404 279 98.9999Z" fill="#0052B4"/>
</g>
<rect y="240" width="46" height="46" rx="8" fill="white"/>
<g clip-path="url(#clip2_859_1292)">
<path d="M27.174 251.746C25.874 251.264 24.4679 251 23.0001 251C21.5322 251 20.1262 251.264 18.8262 251.746L17.7827 263L18.8262 274.254C20.1262 274.736 21.5322 275 23.0001 275C24.4679 275 25.874 274.736 27.174 274.254L28.2175 263L27.174 251.746Z" fill="#FFDA44"/>
<path d="M34.9999 263C34.9999 257.84 31.7434 253.442 27.1738 251.746V274.254C31.7434 272.558 34.9999 268.16 34.9999 263Z" fill="#D80027"/>
<path d="M11 263C11 268.16 14.2565 272.558 18.8261 274.254V251.746C14.2565 253.442 11 257.84 11 263Z" fill="black"/>
</g>
<rect y="76" width="46" height="46" rx="8" fill="white"/>
<g clip-path="url(#clip3_859_1292)">
<path d="M23 111C29.6274 111 35 105.627 35 99C35 92.3726 29.6274 87 23 87C16.3726 87 11 92.3726 11 99C11 105.627 16.3726 111 23 111Z" fill="#D80027"/>
<path d="M17.5672 94.3032L18.6031 97.4907H21.9547L19.2453 99.4642L20.2812 102.652L17.5672 100.683L14.8531 102.652L15.8938 99.4642L13.1797 97.4907H16.5312L17.5672 94.3032Z" fill="#FFDA44"/>
<path d="M25.2265 105.586L24.4343 104.611L23.2624 105.066L23.9421 104.011L23.1499 103.031L24.364 103.355L25.0483 102.3L25.114 103.556L26.3327 103.88L25.1562 104.33L25.2265 105.586Z" fill="#FFDA44"/>
<path d="M26.8015 102.727L27.1765 101.527L26.1499 100.8L27.4062 100.781L27.7765 99.5813L28.1843 100.772L29.4405 100.758L28.4327 101.508L28.8358 102.698L27.8093 101.972L26.8015 102.727Z" fill="#FFDA44"/>
<path d="M28.9251 95.8078L28.372 96.9375L29.272 97.8141L28.0298 97.636L27.4767 98.761L27.261 97.5235L26.0142 97.3453L27.1298 96.7594L26.9142 95.5172L27.8142 96.3938L28.9251 95.8078Z" fill="#FFDA44"/>
<path d="M25.2592 92.386L25.1654 93.6375L26.3326 94.111L25.1092 94.411L25.0201 95.6672L24.3592 94.5985L23.1357 94.8985L23.9467 93.9375L23.2811 92.8735L24.4482 93.3469L25.2592 92.386Z" fill="#FFDA44"/>
</g>
<rect x="134" y="316" width="46" height="46" rx="8" fill="white"/>
<g clip-path="url(#clip4_859_1292)">
<path d="M157 351C163.627 351 169 345.627 169 339C169 332.373 163.627 327 157 327C150.373 327 145 332.373 145 339C145 345.627 150.373 351 157 351Z" fill="#F0F0F0"/>
<path d="M169 339C169 334.242 166.231 330.132 162.217 328.191V349.809C166.231 347.868 169 343.757 169 339Z" fill="#D80027"/>
<path d="M145 339C145 343.757 147.769 347.868 151.783 349.809V328.191C147.769 330.132 145 334.242 145 339Z" fill="#D80027"/>
<path d="M159.087 340.565L161.174 339.522L160.131 339V337.957L158.044 339L159.087 336.913H158.044L157 335.348L155.957 336.913H154.913L155.957 339L153.87 337.957V339L152.826 339.522L154.913 340.565L154.391 341.609H156.478V343.174H157.522V341.609H159.609L159.087 340.565Z" fill="#D80027"/>
</g>
<rect x="134" width="46" height="46" rx="8" fill="white"/>
<g clip-path="url(#clip5_859_1292)">
<path d="M157 35C163.627 35 169 29.6274 169 23C169 16.3726 163.627 11 157 11C150.373 11 145 16.3726 145 23C145 29.6274 150.373 35 157 35Z" fill="#F0F0F0"/>
<path d="M156.479 23H169C169 21.9169 168.856 20.8676 168.587 19.8695H156.479V23Z" fill="#D80027"/>
<path d="M156.479 16.7391H167.239C166.504 15.5404 165.565 14.4809 164.47 13.6086H156.479V16.7391Z" fill="#D80027"/>
<path d="M157 34.9999C159.824 34.9999 162.42 34.0238 164.47 32.3912H149.53C151.58 34.0238 154.176 34.9999 157 34.9999Z" fill="#D80027"/>
<path d="M146.761 29.2608H167.239C167.829 28.2985 168.286 27.2467 168.587 26.1304H145.414C145.714 27.2467 146.172 28.2985 146.761 29.2608Z" fill="#D80027"/>
<path d="M150.559 12.874H151.652L150.635 13.613L151.024 14.8087L150.006 14.0697L148.989 14.8087L149.325 13.7757C148.429 14.5217 147.644 15.3958 146.997 16.3696H147.348L146.7 16.84C146.599 17.0083 146.503 17.1792 146.41 17.3527L146.719 18.3043L146.142 17.8852C145.999 18.189 145.868 18.4997 145.75 18.8168L146.091 19.8653H147.348L146.331 20.6043L146.719 21.8L145.702 21.061L145.093 21.5037C145.032 21.9939 145 22.4932 145 23H157C157 16.3726 157 15.5913 157 11C154.629 11 152.42 11.6877 150.559 12.874ZM151.024 21.8L150.006 21.061L148.989 21.8L149.378 20.6043L148.361 19.8653H149.618L150.006 18.6695L150.395 19.8653H151.652L150.635 20.6043L151.024 21.8ZM150.635 17.1086L151.024 18.3043L150.006 17.5654L148.989 18.3043L149.378 17.1086L148.361 16.3696H149.618L150.006 15.1739L150.395 16.3696H151.652L150.635 17.1086ZM155.328 21.8L154.311 21.061L153.294 21.8L153.682 20.6043L152.665 19.8653H153.922L154.311 18.6695L154.699 19.8653H155.957L154.939 20.6043L155.328 21.8ZM154.939 17.1086L155.328 18.3043L154.311 17.5654L153.294 18.3043L153.682 17.1086L152.665 16.3696H153.922L154.311 15.1739L154.699 16.3696H155.957L154.939 17.1086ZM154.939 13.613L155.328 14.8087L154.311 14.0697L153.294 14.8087L153.682 13.613L152.665 12.874H153.922L154.311 11.6782L154.699 12.874H155.957L154.939 13.613Z" fill="#0052B4"/>
</g>
<defs>
<clipPath id="clip0_859_1292">
<rect width="24" height="24" fill="white" transform="translate(279 251)"/>
</clipPath>
<clipPath id="clip1_859_1292">
<rect width="24" height="24" fill="white" transform="translate(279 87)"/>
</clipPath>
<clipPath id="clip2_859_1292">
<rect width="24" height="24" fill="white" transform="translate(11 251)"/>
</clipPath>
<clipPath id="clip3_859_1292">
<rect width="24" height="24" fill="white" transform="translate(11 87)"/>
</clipPath>
<clipPath id="clip4_859_1292">
<rect width="24" height="24" fill="white" transform="translate(145 327)"/>
</clipPath>
<clipPath id="clip5_859_1292">
<rect width="24" height="24" fill="white" transform="translate(145 11)"/>
</clipPath>
</defs>
</svg>
