<?xml version="1.0" encoding="UTF-8"?>
<svg id="Layer_1" xmlns="http://www.w3.org/2000/svg" version="1.1" viewBox="0 0 130 50">
  <!-- Generator: Adobe Illustrator 29.0.1, SVG Export Plug-In . SVG Version: 2.1.0 Build 192)  -->
  <defs>
    <style>
      .st0 {
        fill: #fff;
      }

      .st1 {
        fill: #ff3c28;
      }
    </style>
  </defs>
  <path class="st0" d="M57.2,32.9h0c-1.2,1.2-2.5,1.9-3.9,1.9-2.9,0-5-2.2-5-5.1s2.1-5.1,5-5.1,2.7.6,3.9,1.8h0c0,0,1.8-2.2,1.8-2.2h0c-1.5-1.9-3.4-2.8-5.7-2.8s-4.4.8-5.9,2.1c-1.6,1.5-2.5,3.6-2.5,6.1s.9,4.6,2.5,6.1c1.5,1.4,3.6,2.1,5.9,2.1s4.1-.9,5.7-2.7h0c0,0-1.8-2.3-1.8-2.3Z"/>
  <path class="st0" d="M60.9,37.6h3.3v-15.9h-3.3v15.9Z"/>
  <path class="st0" d="M77,34.1c-.9.5-1.7.8-2.4.8-1.1,0-1.5-.6-1.5-1.8v-8.5h3.3v-3h-3.3v-5l-3.2,1.7v3.2h-2.8v3h2.8v9c0,2.5,1.5,4.1,3.6,4.2,1.5,0,2.4-.4,2.9-.7h0s.8-3.1.8-3.1h-.2Z"/>
  <path class="st0" d="M79.7,37.6h3.3v-15.9h-3.3v15.9Z"/>
  <path class="st1" d="M84.9,18.9c-3-4.2-7.9-6.7-13-6.7s-10,2.5-13,6.7l-.2.2h3.8c2.6-2.7,5.9-4.1,9.3-4.1s6.8,1.4,9.3,4h0s3.8,0,3.8,0v-.2Z"/>
</svg>