<?xml version="1.0" encoding="UTF-8"?>
<svg id="Layer_1" xmlns="http://www.w3.org/2000/svg" version="1.1" viewBox="0 0 130 51">
  <!-- Generator: Adobe Illustrator 29.0.1, SVG Export Plug-In . SVG Version: 2.1.0 Build 192)  -->
  <defs>
    <style>
      .st0 {
        fill: #fff;
      }
    </style>
  </defs>
  <path class="st0" d="M41.1,22.7c-2.9,0-5.2,2.2-5.2,5.2s2.2,5.1,5.2,5.1,5.2-2.2,5.2-5.2-2.2-5.1-5.2-5.1ZM41.2,30.8c-1.7,0-2.9-1.3-2.9-3s1.2-3,2.8-3,2.9,1.3,2.9,3-1.2,3-2.9,3ZM47,24.9h1.4v7.9h2.3v-9.9h-3.8v2.1ZM30.2,24.8c1.2,0,2.2.7,2.5,1.9h2.4c-.4-2.4-2.4-4-5-4s-5.2,2.2-5.2,5.2,2.2,5.1,5.2,5.1,4.5-1.6,4.9-4h-2.4c-.3,1.1-1.3,1.9-2.5,1.9s-2.8-1.3-2.8-3c0-1.7,1.2-3,2.8-3ZM90.9,26.9l-1.7-.2c-.8-.1-1.4-.4-1.4-1s.8-1,1.8-1,1.8.5,2,1.3h2.2c-.3-2-1.8-3.2-4.2-3.2s-4.1,1.2-4.1,3,1.1,2.7,3.2,3l1.7.2c.8.1,1.3.4,1.3,1.1s-.8,1.1-1.9,1.1-2.1-.6-2.3-1.4h-2.3c.2,1.9,1.7,3.3,4.5,3.3s4.2-1.2,4.2-3.1-1.2-2.7-3.1-3ZM49.6,18.8c-.8,0-1.5.6-1.5,1.5s.6,1.5,1.5,1.5,1.5-.6,1.5-1.5-.6-1.5-1.5-1.5ZM83.5,26.2c0-2.1-1.3-3.6-4.1-3.6s-4.1,1.3-4.4,3.4h2.3c.1-.8.7-1.4,2-1.4s1.8.5,1.8,1.2-1.1,1-2.4,1.2c-1.8.2-4,.8-4,3.1s1.3,2.9,3.4,2.9,2.7-.7,3.2-1.8c0,1,.8,1.6,1.8,1.6h1.3v-2.1h-1.1v-4.5h0ZM81.2,28.7c0,1.3-1.2,2.3-2.6,2.3s-1.6-.4-1.6-1.1,1.2-1.2,2.3-1.4c1,0,1.6-.3,1.9-.8v1ZM69,22.7c-1.3,0-2.4.5-3.1,1.4v-5.4h-2.3v14.1h2.3v-1.3c.8.9,1.9,1.5,3.2,1.5,2.8,0,4.9-2.2,4.9-5.1s-2.1-5.2-4.9-5.2ZM68.6,30.8c-1.7,0-2.9-1.3-2.9-3s1.2-3,2.9-3,2.8,1.3,2.8,3-1.2,3-2.9,3ZM58,22.7c-1.5,0-2.5.6-3.1,1.5v-1.3h-2.3v9.9h2.3v-5.4c0-1.5,1-2.6,2.4-2.6s2.2.9,2.2,2.3v5.7h2.3v-5.9c0-2.5-1.3-4.3-3.8-4.3ZM105,27.5c0-2.8-2.1-4.8-4.9-4.8s-5.1,2.2-5.1,5.2,2.3,5.1,5.2,5.1,4.3-1.4,4.8-3.4h-2.4c-.3.9-1.2,1.4-2.3,1.4s-2.6-.9-2.8-2.5h7.6v-.9h0ZM97.5,26.7c.4-1.4,1.4-2.1,2.6-2.1s2.3.7,2.5,2.1h-5.1Z"/>
</svg>