<svg width="42" height="42" viewBox="0 0 42 42" fill="none" xmlns="http://www.w3.org/2000/svg">
<rect width="42" height="42" rx="8" fill="#ECEAE5"/>
<mask id="mask0_36_1476" style="mask-type:alpha" maskUnits="userSpaceOnUse" x="5" y="5" width="32" height="32">
<rect x="5" y="5" width="32" height="32" fill="#D9D9D9"/>
</mask>
<g mask="url(#mask0_36_1476)">
<path d="M26.3332 27.6667C28.1776 27.6667 29.7498 27.0167 31.0498 25.7167C32.3498 24.4167 32.9998 22.8444 32.9998 21C32.9998 19.1556 32.3498 17.5833 31.0498 16.2833C29.7498 14.9833 28.1776 14.3333 26.3332 14.3333C25.4767 14.3333 24.6754 14.4838 23.9292 14.7847C23.1832 15.0856 22.5229 15.5001 21.9485 16.0283C22.4905 16.7086 22.9123 17.4734 23.2138 18.323C23.5156 19.1726 23.6665 20.0649 23.6665 21C23.6665 21.9351 23.5156 22.8274 23.2138 23.677C22.9123 24.5266 22.4905 25.2914 21.9485 25.9717C22.5229 26.4999 23.1832 26.9144 23.9292 27.2153C24.6754 27.5162 25.4767 27.6667 26.3332 27.6667ZM20.9998 25C21.4221 24.4444 21.7498 23.8278 21.9832 23.15C22.2165 22.4722 22.3332 21.7556 22.3332 21C22.3332 20.2444 22.2165 19.5278 21.9832 18.85C21.7498 18.1722 21.4221 17.5556 20.9998 17C20.5776 17.5556 20.2498 18.1722 20.0165 18.85C19.7832 19.5278 19.6665 20.2444 19.6665 21C19.6665 21.7556 19.7832 22.4722 20.0165 23.15C20.2498 23.8278 20.5776 24.4444 20.9998 25ZM15.6665 27.6667C16.5229 27.6667 17.3243 27.5162 18.0705 27.2153C18.8165 26.9144 19.4767 26.4999 20.0512 25.9717C19.5092 25.2914 19.0874 24.5266 18.7858 23.677C18.4841 22.8274 18.3332 21.9351 18.3332 21C18.3332 20.0649 18.4841 19.1726 18.7858 18.323C19.0874 17.4734 19.5092 16.7086 20.0512 16.0283C19.4767 15.5001 18.8165 15.0856 18.0705 14.7847C17.3243 14.4838 16.5229 14.3333 15.6665 14.3333C13.8221 14.3333 12.2498 14.9833 10.9498 16.2833C9.64984 17.5833 8.99984 19.1556 8.99984 21C8.99984 22.8444 9.64984 24.4167 10.9498 25.7167C12.2498 27.0167 13.8221 27.6667 15.6665 27.6667ZM15.6665 29C13.4425 29 11.5532 28.2227 9.9985 26.668C8.44384 25.1133 7.6665 23.224 7.6665 21C7.6665 18.776 8.44384 16.8867 9.9985 15.332C11.5532 13.7773 13.4425 13 15.6665 13C16.7007 13 17.6721 13.1829 18.5805 13.5487C19.4892 13.9144 20.2956 14.4239 20.9998 15.077C21.7041 14.4239 22.5105 13.9144 23.4192 13.5487C24.3276 13.1829 25.2989 13 26.3332 13C28.5572 13 30.4465 13.7773 32.0012 15.332C33.5558 16.8867 34.3332 18.776 34.3332 21C34.3332 23.224 33.5558 25.1133 32.0012 26.668C30.4465 28.2227 28.5572 29 26.3332 29C25.2989 29 24.3276 28.8171 23.4192 28.4513C22.5105 28.0856 21.7041 27.5761 20.9998 26.923C20.2956 27.5761 19.4892 28.0856 18.5805 28.4513C17.6721 28.8171 16.7007 29 15.6665 29Z" fill="#191314"/>
</g>
</svg>
