<?xml version="1.0" encoding="UTF-8"?>
<svg id="Layer_1" xmlns="http://www.w3.org/2000/svg" version="1.1" viewBox="0 0 14 14">
  <!-- Generator: Adobe Illustrator 29.0.1, SVG Export Plug-In . SVG Version: 2.1.0 Build 192)  -->
  <defs>
    <style>
      .st0 {
        fill: #fff;
      }
    </style>
  </defs>
  <path class="st0" d="M8.8,11.5v-2.3c0-1-.8-1.8-1.8-1.8s-1.8.8-1.8,1.8v2.3h-.8v-2.3c0-1-.8-1.8-1.8-1.8h-.5v-.8h.5c1,0,1.8-.8,1.8-1.8v-2.3h.8v2.3c0,1,.8,1.8,1.8,1.8s1.8-.8,1.8-1.8v-2.3h.8v2.3c0,1,.8,1.8,1.8,1.8h.5v.8h-.5c-1,0-1.8.8-1.8,1.8v2.3h-.8,0Z"/>
</svg>