<svg width="42" height="42" viewBox="0 0 42 42" fill="none" xmlns="http://www.w3.org/2000/svg">
<rect width="42" height="42" rx="8" fill="#ECEAE5"/>
<mask id="mask0_36_1485" style="mask-type:alpha" maskUnits="userSpaceOnUse" x="5" y="5" width="32" height="32">
<rect x="5" y="5" width="32" height="32" fill="#D9D9D9"/>
</mask>
<g mask="url(#mask0_36_1485)">
<path d="M14.4875 27V25.6667H24.0002C23.2446 25.118 22.6869 24.4932 22.3272 23.7923C21.9674 23.0914 21.7575 22.3829 21.6975 21.6667H16.8462V20.3333H21.6975C21.7915 19.5829 22.0185 18.8572 22.3785 18.1563C22.7383 17.4554 23.2788 16.8478 24.0002 16.3333H9.66683V15H27.6668C29.3268 15 30.7418 15.5847 31.9118 16.754C33.0818 17.9231 33.6668 19.3372 33.6668 20.9963C33.6668 22.6552 33.0818 24.0706 31.9118 25.2423C30.7418 26.4141 29.3268 27 27.6668 27H14.4875ZM27.6668 25.6667C28.9488 25.6667 30.0472 25.2094 30.9618 24.295C31.8763 23.3803 32.3335 22.282 32.3335 21C32.3335 19.718 31.8763 18.6197 30.9618 17.705C30.0472 16.7906 28.9488 16.3333 27.6668 16.3333C26.3848 16.3333 25.2865 16.7906 24.3718 17.705C23.4574 18.6197 23.0002 19.718 23.0002 21C23.0002 22.282 23.4574 23.3803 24.3718 24.295C25.2865 25.2094 26.3848 25.6667 27.6668 25.6667ZM8.3335 21.6667V20.3333H15.5128V21.6667H8.3335ZM9.66683 27V25.6667H13.1542V27H9.66683Z" fill="#191314"/>
</g>
</svg>
