<svg width="42" height="42" viewBox="0 0 42 42" fill="none" xmlns="http://www.w3.org/2000/svg">
<rect width="42" height="42" rx="8" fill="#ECEAE5"/>
<mask id="mask0_36_1503" style="mask-type:alpha" maskUnits="userSpaceOnUse" x="5" y="5" width="32" height="32">
<rect x="5" y="5" width="32" height="32" fill="#D9D9D9"/>
</mask>
<g mask="url(#mask0_36_1503)">
<path d="M20.9998 18.3333C19.7896 18.3333 18.6494 18.1294 17.5792 17.7217C16.5092 17.3141 15.5366 16.7522 14.6615 16.036L15.8818 15.295C16.4152 15.6881 17.0528 16.0291 17.7948 16.318C18.5366 16.6069 19.3827 16.8325 20.3332 16.995V9.51799L20.9998 9.10266L21.6665 9.51799V16.995C22.5827 16.8325 23.4118 16.6069 24.1538 16.318C24.8956 16.0291 25.5503 15.6881 26.1178 15.295L27.3382 16.036C26.4631 16.7522 25.4905 17.3141 24.4205 17.7217C23.3503 18.1294 22.2101 18.3333 20.9998 18.3333ZM18.8792 30.5L17.6178 29.8153C17.6452 29.6838 17.6601 29.5479 17.6625 29.4077C17.6652 29.2674 17.6665 29.1315 17.6665 29C17.6665 28.4375 17.5922 27.8251 17.4435 27.1627C17.2948 26.5004 17.0803 25.8103 16.7998 25.0923L10.3408 28.964L9.6665 28.5897V27.818L16.0922 23.954C15.5111 23.2889 14.9016 22.7093 14.2638 22.2153C13.6263 21.7213 12.9827 21.3264 12.3332 21.0307V19.5897C14.2683 20.2752 15.8632 21.4697 17.1178 23.173C18.3725 24.8765 18.9998 26.8189 18.9998 29C18.9998 29.2564 18.9904 29.509 18.9715 29.7577C18.9528 30.0063 18.9221 30.2538 18.8792 30.5ZM23.1205 30.5C23.0776 30.2538 23.0468 30.0063 23.0282 29.7577C23.0093 29.509 22.9998 29.2564 22.9998 29C22.9998 26.8189 23.6272 24.8765 24.8818 23.173C26.1365 21.4697 27.7314 20.2752 29.6665 19.5897V21.005C29.0341 21.2665 28.3991 21.6529 27.7615 22.164C27.1237 22.6751 26.5057 23.2718 25.9075 23.954L32.3332 27.818V28.5897L31.6588 28.964L25.1998 25.0923C24.9194 25.8103 24.7048 26.5004 24.5562 27.1627C24.4075 27.8251 24.3332 28.4375 24.3332 29C24.3332 29.1315 24.3345 29.2674 24.3372 29.4077C24.3396 29.5479 24.3545 29.6838 24.3818 29.8153L23.1205 30.5Z" fill="#191314"/>
</g>
</svg>
