<svg width="42" height="42" viewBox="0 0 42 42" fill="none" xmlns="http://www.w3.org/2000/svg">
<rect width="42" height="42" rx="8" fill="#ECEAE5"/>
<mask id="mask0_36_1494" style="mask-type:alpha" maskUnits="userSpaceOnUse" x="5" y="5" width="32" height="32">
<rect x="5" y="5" width="32" height="32" fill="#D9D9D9"/>
</mask>
<g mask="url(#mask0_36_1494)">
<path d="M13.6256 32.3333C13.4256 32.3333 13.2675 32.2465 13.1513 32.073C13.035 31.8994 13.0068 31.7237 13.0666 31.546L18.9999 10.1126C19.0546 9.96063 19.1333 9.84829 19.2359 9.77563C19.3384 9.70296 19.4571 9.66663 19.5923 9.66663C19.8145 9.66663 19.9837 9.74907 20.0999 9.91396C20.2161 10.0791 20.2444 10.2591 20.1846 10.454L19.2873 13.6666H26.7616L27.7486 10.1126C27.8033 9.96063 27.8831 9.84829 27.9883 9.77563C28.0934 9.70296 28.222 9.66663 28.3743 9.66663C28.5743 9.66663 28.7324 9.7534 28.8486 9.92696C28.9648 10.1005 28.993 10.2762 28.9333 10.454L22.9999 31.8873C22.9453 32.0393 22.8666 32.1516 22.7639 32.2243C22.6615 32.297 22.5427 32.3333 22.4076 32.3333C22.1854 32.3333 22.0161 32.2508 21.8999 32.086C21.7837 31.9208 21.7555 31.7408 21.8153 31.546L22.7126 28.3333H15.2383L14.2513 31.8873C14.1966 32.0393 14.1167 32.1516 14.0116 32.2243C13.9065 32.297 13.7778 32.3333 13.6256 32.3333ZM17.4539 20.3333H24.9206L26.4049 15H18.9126L17.4539 20.3333ZM15.5949 27H23.0873L24.5459 21.6666H17.0793L15.5949 27Z" fill="#191314"/>
</g>
</svg>
