<svg width="42" height="42" viewBox="0 0 42 42" fill="none" xmlns="http://www.w3.org/2000/svg">
<rect width="42" height="42" rx="8" fill="#ECEAE5"/>
<mask id="mask0_36_1434" style="mask-type:alpha" maskUnits="userSpaceOnUse" x="5" y="5" width="32" height="32">
<rect x="5" y="5" width="32" height="32" fill="#D9D9D9"/>
</mask>
<g mask="url(#mask0_36_1434)">
<path d="M17 33C15.882 33 14.8418 32.7898 13.8793 32.3693C12.9171 31.9487 12.0736 31.376 11.3487 30.6513C10.624 29.9264 10.0513 29.0829 9.63067 28.1207C9.21022 27.1582 9 26.118 9 25C9 23.4222 9.41967 21.9701 10.259 20.6437C11.0983 19.3172 12.2479 18.3334 13.7077 17.6923C14.1179 16.7743 14.6593 15.979 15.332 15.3063C16.0047 14.6337 16.7914 14.1008 17.6923 13.7077C18.323 12.2821 19.2871 11.1411 20.5847 10.2847C21.882 9.42822 23.3538 9 25 9C26.118 9 27.1582 9.21022 28.1207 9.63067C29.0829 10.0513 29.9264 10.624 30.6513 11.3487C31.376 12.0736 31.9487 12.9171 32.3693 13.8793C32.7898 14.8418 33 15.882 33 17C33 18.6496 32.5847 20.1111 31.754 21.3847C30.9231 22.6582 29.7692 23.6326 28.2923 24.3077C27.8821 25.2257 27.3449 26.0167 26.6807 26.6807C26.0167 27.3449 25.2257 27.8821 24.3077 28.2923C23.6666 29.7179 22.6999 30.8589 21.4077 31.7153C20.1154 32.5718 18.6462 33 17 33ZM17.0513 31.6667C18.0411 31.6667 19.033 31.4273 20.027 30.9487C21.021 30.47 21.8069 29.7691 22.3847 28.846C21.0273 29.0853 19.7436 28.9906 18.5333 28.5617C17.3231 28.1326 16.2787 27.4872 15.4 26.6257C14.5213 25.747 13.8674 24.7068 13.4383 23.505C13.0094 22.3034 12.9147 21.024 13.154 19.6667C12.248 20.2616 11.5513 21.0432 11.064 22.0117C10.5769 22.9799 10.3333 23.976 10.3333 25C10.3333 25.9333 10.5111 26.8042 10.8667 27.6127C11.2222 28.4213 11.7 29.1257 12.3 29.7257C12.9171 30.3257 13.6299 30.7991 14.4383 31.146C15.247 31.4931 16.118 31.6667 17.0513 31.6667ZM21 27.6667C22.2804 27.6667 23.3818 27.3761 24.304 26.795C25.2262 26.2137 25.9249 25.564 26.4 24.846C25.0376 25.0853 23.7512 24.9892 22.541 24.5577C21.3308 24.1261 20.2863 23.4796 19.4077 22.618C18.529 21.7393 17.8739 20.6991 17.4423 19.4973C17.0108 18.2958 16.9147 17.0138 17.154 15.6513C16.3847 16.1778 15.7308 16.9064 15.1923 17.8373C14.6539 18.768 14.3847 19.8222 14.3847 21C14.3847 21.9333 14.5569 22.8 14.9013 23.6C15.2458 24.4 15.7206 25.1 16.3257 25.7C16.9257 26.3222 17.6213 26.8056 18.4127 27.15C19.2042 27.4944 20.0667 27.6667 21 27.6667ZM25.0513 23.6667C25.4513 23.6667 25.8347 23.6333 26.2013 23.5667C26.568 23.5 26.9402 23.4 27.318 23.2667C27.8069 21.9333 27.8791 20.65 27.5347 19.4167C27.1902 18.1833 26.5958 17.1444 25.7513 16.3C24.9069 15.4556 23.868 14.8611 22.6347 14.5167C21.4013 14.1722 20.118 14.2444 18.7847 14.7333C18.6513 15.1111 18.5513 15.4833 18.4847 15.85C18.418 16.2167 18.3847 16.6 18.3847 17C18.3847 17.9333 18.5569 18.8 18.9013 19.6C19.2458 20.4 19.7291 21.1 20.3513 21.7C20.9513 22.3222 21.6513 22.8056 22.4513 23.15C23.2513 23.4944 24.118 23.6667 25.0513 23.6667ZM28.8973 22.3487C29.752 21.7709 30.4272 21.0466 30.923 20.1757C31.4188 19.3048 31.6667 18.2462 31.6667 17C31.6667 16.0667 31.4944 15.2 31.15 14.4C30.8056 13.6 30.3222 12.9 29.7 12.3C29.1 11.6778 28.4 11.1944 27.6 10.85C26.8 10.5056 25.9333 10.3333 25 10.3333C23.8633 10.3333 22.845 10.5854 21.945 11.0897C21.045 11.5939 20.2804 12.282 19.6513 13.154C21.0138 12.9147 22.3001 13.0108 23.5103 13.4423C24.7206 13.8739 25.765 14.5204 26.6437 15.382C27.5223 16.2607 28.1774 17.3009 28.609 18.5027C29.0406 19.7042 29.1367 20.9862 28.8973 22.3487Z" fill="#191314"/>
</g>
</svg>
