<svg width="42" height="42" viewBox="0 0 42 42" fill="none" xmlns="http://www.w3.org/2000/svg">
<rect width="42" height="42" rx="8" fill="#ECEAE5"/>
<mask id="mask0_86_2394" style="mask-type:alpha" maskUnits="userSpaceOnUse" x="5" y="5" width="32" height="32">
<rect x="5" y="5" width="32" height="32" fill="#D9D9D9"/>
</mask>
<g mask="url(#mask0_86_2394)">
<path d="M25.2563 27H15V25.6667H21.5897C20.9368 25.1862 20.409 24.6029 20.0063 23.9167C19.6039 23.2304 19.3642 22.4804 19.2873 21.6667H11.6153V20.3333H19.2873C19.3813 19.5196 19.6253 18.7696 20.0193 18.0833C20.4133 17.3971 20.9368 16.8138 21.5897 16.3333H11V15H25.2563C26.9163 15 28.3313 15.5847 29.5013 16.754C30.6713 17.9231 31.2563 19.3372 31.2563 20.9963C31.2563 22.6552 30.6713 24.0706 29.5013 25.2423C28.3313 26.4141 26.9163 27 25.2563 27ZM25.2593 25.6667C26.5564 25.6667 27.658 25.2127 28.564 24.3047C29.47 23.3967 29.923 22.2941 29.923 20.997C29.923 19.6999 29.469 18.5983 28.561 17.6923C27.653 16.7863 26.5504 16.3333 25.2533 16.3333C23.9562 16.3333 22.8547 16.7873 21.9487 17.6953C21.0427 18.6033 20.5897 19.7059 20.5897 21.003C20.5897 22.3001 21.0437 23.4017 21.9517 24.3077C22.8597 25.2137 23.9622 25.6667 25.2593 25.6667ZM10.7437 27V25.6667H12.641V27H10.7437Z" fill="#1C1B1F"/>
</g>
</svg>
