<?xml version="1.0" encoding="UTF-8"?>
<svg id="Layer_1" xmlns="http://www.w3.org/2000/svg" version="1.1" viewBox="0 0 131 51">
  <!-- Generator: Adobe Illustrator 29.0.1, SVG Export Plug-In . SVG Version: 2.1.0 Build 192)  -->
  <defs>
    <style>
      .st0 {
        fill: #fff;
      }
    </style>
  </defs>
  <path class="st0" d="M49.9,21c-1.1-1.7-2.6-2.6-4.2-2.6s-1.8.4-2.7,1.2c-.6.5-1.1,1.1-1.6,1.8-.6-.8-1.2-1.4-1.7-1.8-1-.9-2-1.2-3.1-1.2h0c-1.7,0-3.3,1.1-4.3,2.8-1.2,1.8-1.8,4.2-1.8,6.5s0,.6,0,.9c0,.9.3,1.6.7,2.3h0c.6,1,1.6,1.7,3.2,1.7s2.3-.6,3.5-2.2c.7-.9,1-1.4,2.4-3.8l.7-1.2c0,0,.1-.2.2-.3,0,0,.1.2.2.3l1.9,3.2c.6,1.1,1.5,2.3,2.2,2.9.9.9,1.8,1.1,2.7,1.1,1.5,0,2.4-.8,2.9-1.6.2-.4.4-.9.6-1.4.1-.5.2-1.2.2-1.9,0-2.4-.6-4.7-1.8-6.6ZM39.1,24.8c-.7,1-1.7,2.7-2.5,3.8-1.1,1.5-1.6,1.6-2.2,1.6s-.9-.2-1.2-.7c-.2-.4-.4-1-.4-1.8,0-2,.6-4,1.5-5.4h0c.6-1,1.4-1.6,2.3-1.6s1.8.7,2.4,1.3c.3.3.7.8,1.1,1.4l-.9,1.4ZM46.6,29.4c-.4-.5-1.2-1.7-2.5-3.9l-.5-.9c-.4-.6-.8-1.2-1.1-1.8,0,0,.1-.2.2-.3,1-1.5,1.9-2.3,3-2.3s1.9.7,2.6,1.8c1,1.5,1.5,3.7,1.5,5.7s-.3,2.6-1.6,2.6h0c-.5,0-.9-.2-1.5-.9Z"/>
  <path class="st0" d="M98.5,22.3v1.3c-.7-1-1.8-1.5-3.2-1.5-2.8,0-4.6,2.2-4.6,5.2s1.8,5.2,4.5,5.2,2.7-.8,3.3-1.6v1.4h2v-10h-2ZM98.4,28.8c-.4,1-1.4,1.8-2.8,1.8s-2.8-1.3-2.8-3.3,1.1-3.3,2.9-3.3,2.3.8,2.7,1.8v3Z"/>
  <path class="st0" d="M77.3,22.1c-2.9,0-4.9,2.2-4.9,5.3s1.9,5.2,5.1,5.2c1.7,0,3.1-.6,4.2-1.6l-1.1-1.4c-.8.7-1.6,1.2-3,1.2s-2.7-1.1-3-2.6h7.3v-.6c0-3.2-1.7-5.4-4.6-5.4ZM74.5,26.5c.2-1.4,1.2-2.6,2.7-2.6s2.4,1.1,2.6,2.6h-5.3Z"/>
  <path class="st0" d="M86.6,28.6v-4.5h3v-1.8h-3v-2.9h-2.1v2.9h-2v1.8h2v4.7c0,2.5,1.1,3.7,3.4,3.7s1.2,0,1.7-.2v-1.8c-.5,0-.8.1-1.3.1-1.2,0-1.7-.5-1.7-2.1Z"/>
  <polygon class="st0" points="63.4 27.1 58.8 18.9 56.2 18.9 56.2 18.9 56.2 32.3 58.4 32.3 58.4 22 62.3 29.1 64.3 29.1 68.3 22 68.3 32.3 70.5 32.3 70.5 18.9 67.9 18.9 63.4 27.1"/>
</svg>