<svg width="42" height="42" viewBox="0 0 42 42" fill="none" xmlns="http://www.w3.org/2000/svg">
<rect width="42" height="42" rx="8" fill="#ECEAE5"/>
<mask id="mask0_36_1453" style="mask-type:alpha" maskUnits="userSpaceOnUse" x="5" y="5" width="32" height="32">
<rect x="5" y="5" width="32" height="32" fill="#D9D9D9"/>
</mask>
<g mask="url(#mask0_36_1453)">
<path d="M19.641 24.3334H22.359L21.618 20.2128C22.0111 20.0761 22.3355 19.8351 22.591 19.4898C22.8466 19.1445 22.9744 18.759 22.9744 18.3335C22.9744 17.7881 22.7816 17.3228 22.396 16.9374C22.0107 16.5519 21.5454 16.3591 21 16.3591C20.4547 16.3591 19.9894 16.5519 19.604 16.9374C19.2185 17.3228 19.0257 17.7881 19.0257 18.3335C19.0257 18.759 19.1535 19.1445 19.409 19.4898C19.6646 19.8351 19.9889 20.0761 20.382 20.2128L19.641 24.3334ZM21 32.9488C18.3214 32.1539 16.0961 30.5312 14.3244 28.0808C12.5526 25.6303 11.6667 22.8701 11.6667 19.8001V12.5898L21 9.10278L30.3334 12.5898V19.8001C30.3334 22.8701 29.4475 25.6303 27.6757 28.0808C25.9039 30.5312 23.6787 32.1539 21 32.9488ZM21 31.5335C23.3111 30.8001 25.2222 29.3335 26.7334 27.1334C28.2445 24.9334 29 22.489 29 19.8001V13.5001L21 10.5258L13 13.5001V19.8001C13 22.489 13.7556 24.9334 15.2667 27.1334C16.7778 29.3335 18.6889 30.8001 21 31.5335Z" fill="#191314"/>
</g>
</svg>
