<svg width="14" height="14" viewBox="0 0 14 14" fill="none" xmlns="http://www.w3.org/2000/svg">
<path d="M8.84 11.5007V9.22402C8.84 8.21402 8.01667 7.39236 7.00333 7.39236C5.99 7.39236 5.16667 8.21235 5.16667 9.22402V11.5007H4.35833V9.22402C4.35833 8.21402 3.535 7.39236 2.52167 7.39236H2V6.58569H2.51833C3.53167 6.58569 4.355 5.76569 4.355 4.75402V2.49902H5.16333V4.75069C5.16333 5.76069 5.98667 6.58236 7 6.58236C8.01333 6.58236 8.83667 5.76236 8.83667 4.75069V2.49902H9.645V4.75069C9.645 5.76069 10.4683 6.58236 11.4817 6.58236H12V7.38902H11.4817C10.4683 7.38902 9.645 8.20902 9.645 9.22069V11.4974H8.83667L8.84 11.5007Z" fill="#191314"/>
</svg>
