<?xml version="1.0" encoding="UTF-8"?>
<svg id="Layer_1" xmlns="http://www.w3.org/2000/svg" version="1.1" viewBox="0 0 131 50">
  <!-- Generator: Adobe Illustrator 29.0.1, SVG Export Plug-In . SVG Version: 2.1.0 Build 192)  -->
  <defs>
    <style>
      .st0 {
        fill-rule: evenodd;
      }

      .st0, .st1 {
        fill: #fff;
      }
    </style>
  </defs>
  <path class="st1" d="M34.5,16.2l-5.5,3.2v9.8l-3,1.8-3-1.8v-3.5l3-1.7,2,1.1v-2.8l-2-1.1-5.5,3.2v6.3l5.5,3.2,5.5-3.2v-9.8l3-1.8,3,1.8v3.5l-3,1.8-2-1.1v2.8l2,1.1,5.5-3.2v-6.3l-5.5-3.2Z"/>
  <path class="st0" d="M66.7,29.9h2.5v-13.5h-2.5v13.5ZM50.9,20.3c1.2,0,2.1.5,2.9,1.4.8.9,1.1,2.1,1.1,3.5s-.4,2.5-1.1,3.5c-.8.9-1.7,1.4-2.9,1.4s-1.5-.3-2.1-.8c-.6-.5-1-1.2-1.3-2.1v6.3h-2.5v-13h2.5v2.7c.3-.9.7-1.6,1.3-2.1.6-.5,1.3-.8,2.1-.8ZM50,27.8c.7,0,1.2-.2,1.7-.7.5-.5.7-1.1.7-1.9s-.2-1.4-.7-1.9c-.5-.5-1-.8-1.7-.8s-1.4.2-1.8.7c-.5.5-.7,1.1-.7,1.9s.2,1.4.7,1.9c.5.5,1.1.7,1.8.7h0ZM55.6,25.2c0,1.4.5,2.5,1.4,3.5,1,.9,2.2,1.4,3.6,1.4s2.6-.5,3.6-1.4c1-.9,1.4-2.1,1.4-3.5s-.5-2.5-1.4-3.5c-1-.9-2.2-1.4-3.6-1.4s-2.6.5-3.6,1.4c-1,.9-1.4,2.1-1.4,3.5ZM58.9,27.1c-.5-.5-.7-1.1-.7-1.9s.2-1.4.7-1.9c.5-.5,1.1-.8,1.8-.8s1.3.2,1.8.7c.5.5.7,1.1.7,1.9s-.2,1.4-.7,1.9c-.5.5-1.1.7-1.8.7s-1.3-.2-1.8-.7h0ZM91.9,28.6c-1-.9-1.4-2.1-1.4-3.5s.5-2.5,1.4-3.5c1-.9,2.2-1.4,3.6-1.4s2.6.5,3.6,1.4c1,.9,1.4,2.1,1.4,3.5s-.5,2.5-1.4,3.5c-1,.9-2.2,1.4-3.6,1.4s-2.6-.5-3.6-1.4ZM93,25.2c0,.8.2,1.4.7,1.9.5.5,1.1.7,1.8.7s1.3-.2,1.8-.7c.5-.5.7-1.1.7-1.9s-.2-1.4-.7-1.9c-.5-.5-1.1-.7-1.8-.7s-1.3.3-1.8.8c-.5.5-.7,1.1-.7,1.9h0ZM107,20.3c1,0,1.9.4,2.5,1.1.6.7,1,1.7,1,2.8v5.7h-2.5v-5.3c0-.6-.2-1.1-.6-1.5-.4-.4-.9-.6-1.5-.6s-1.2.2-1.6.6c-.4.4-.6.9-.6,1.5v5.3h-2.5v-9.4h2.5v2.4c.2-.8.7-1.4,1.2-1.9.6-.5,1.3-.7,2-.7h0ZM75.1,27.4l2.5-6.9h2.5l-5.2,13h-2.5l1.3-3.3-3.8-9.7h2.7l2.5,6.9ZM87.1,20.5v2.4c-.5-1.5-1.8-2.4-3.5-2.4-2.5,0-4,2.2-4,4.6s1.5,4.7,4,4.7,2.9-1.2,3.5-2.8v1.8c0,.8-.2,1.4-.7,1.9-.5.5-1.1.7-1.8.7s-1.7-.5-2.2-1.5l-2.2,1.2c.4.8,1,1.4,1.8,1.8.8.5,1.6.7,2.6.7,1.4,0,2.6-.5,3.6-1.4,1-.9,1.4-2.1,1.4-3.5v-8.3h-2.5ZM86.4,26.8c-.5.5-1.1.7-1.8.7s-1.3-.2-1.7-.7c-.5-.5-.7-1.1-.7-1.8s.2-1.3.7-1.8c.5-.5,1.1-.7,1.7-.7s1.3.2,1.8.7c.5.5.7,1.1.7,1.8s-.2,1.3-.7,1.8Z"/>
</svg>