<svg width="42" height="42" viewBox="0 0 42 42" fill="none" xmlns="http://www.w3.org/2000/svg">
<rect width="42" height="42" rx="8" fill="#ECEAE5"/>
<mask id="mask0_36_1443" style="mask-type:alpha" maskUnits="userSpaceOnUse" x="5" y="5" width="32" height="32">
<rect x="5" y="5" width="32" height="32" fill="#D9D9D9"/>
</mask>
<g mask="url(#mask0_36_1443)">
<path d="M31.4437 33.346L28.4617 30.364C27.4239 31.1949 26.2756 31.8419 25.0167 32.305C23.7578 32.7683 22.4189 33 21 33C19.34 33 17.78 32.685 16.32 32.055C14.86 31.425 13.59 30.57 12.51 29.49C11.43 28.41 10.575 27.14 9.94502 25.68C9.31502 24.22 9.00002 22.66 9.00002 21C9.00002 19.5811 9.23169 18.2422 9.69502 16.9833C10.1581 15.7244 10.8051 14.5761 11.636 13.5383L8.65402 10.5563L9.60502 9.605L32.395 32.395L31.4437 33.346ZM21 31.6667C22.2291 31.6667 23.3919 31.4676 24.4884 31.0693C25.585 30.6709 26.5898 30.1161 27.5027 29.405L12.595 14.4973C11.8839 15.4102 11.3291 16.415 10.9307 17.5117C10.5325 18.6081 10.3334 19.7709 10.3334 21C10.3334 23.9556 11.3722 26.4722 13.45 28.55C15.5278 30.6278 18.0445 31.6667 21 31.6667ZM31.159 27.4103L30.1744 26.4257C30.6632 25.6154 31.0342 24.756 31.2874 23.8473C31.5402 22.9389 31.6667 21.9898 31.6667 21C31.6667 18.0444 30.6278 15.5278 28.55 13.45C26.4722 11.3722 23.9556 10.3333 21 10.3333C20.0102 10.3333 19.0611 10.4598 18.1527 10.7127C17.244 10.9658 16.3846 11.3368 15.5744 11.8257L14.5897 10.841C15.5372 10.2459 16.5477 9.79033 17.621 9.47433C18.6941 9.15811 19.8205 9 21 9C22.66 9 24.22 9.315 25.68 9.945C27.14 10.575 28.41 11.43 29.49 12.51C30.57 13.59 31.425 14.86 32.055 16.32C32.685 17.78 33 19.34 33 21C33 22.1796 32.8419 23.3059 32.5257 24.379C32.2097 25.4523 31.7541 26.4628 31.159 27.4103Z" fill="#191314"/>
</g>
</svg>
