<svg width="42" height="42" viewBox="0 0 42 42" fill="none" xmlns="http://www.w3.org/2000/svg">
<rect width="42" height="42" rx="8" fill="#ECEAE5"/>
<mask id="mask0_86_2385" style="mask-type:alpha" maskUnits="userSpaceOnUse" x="5" y="5" width="32" height="32">
<rect x="5" y="5" width="32" height="32" fill="#D9D9D9"/>
</mask>
<g mask="url(#mask0_86_2385)">
<path d="M12.4873 31.6667C11.8735 31.6667 11.361 31.4612 10.9499 31.05C10.5388 30.6389 10.3333 30.1265 10.3333 29.5127V25.359H11.6666V29.5127C11.6666 29.718 11.752 29.9062 11.9229 30.077C12.0938 30.2479 12.2819 30.3334 12.4873 30.3334H29.5126C29.7179 30.3334 29.906 30.2479 30.0769 30.077C30.2478 29.9062 30.3333 29.718 30.3333 29.5127V12.4874C30.3333 12.282 30.2478 12.0939 30.0769 11.923C29.906 11.7522 29.7179 11.6667 29.5126 11.6667H12.4873C12.2819 11.6667 12.0938 11.7522 11.9229 11.923C11.752 12.0939 11.6666 12.282 11.6666 12.4874V16.641H10.3333V12.4874C10.3333 11.8736 10.5388 11.3612 10.9499 10.95C11.361 10.5389 11.8735 10.3334 12.4873 10.3334H29.5126C30.1264 10.3334 30.6388 10.5389 31.0499 10.95C31.461 11.3612 31.6666 11.8736 31.6666 12.4874V29.5127C31.6666 30.1265 31.461 30.6389 31.0499 31.05C30.6388 31.4612 30.1264 31.6667 29.5126 31.6667H12.4873ZM19.4616 26.2307L18.5179 25.2717L22.1229 21.6667H10.3333V20.3334H22.1229L18.5179 16.7284L19.4616 15.7694L24.6923 21L19.4616 26.2307Z" fill="#1C1B1F"/>
</g>
</svg>
