<svg width="80" height="80" viewBox="0 0 80 80" fill="none" xmlns="http://www.w3.org/2000/svg">
<rect width="80" height="80" rx="8" fill="#F2FF66"/>
<mask id="mask0_98_1349" style="mask-type:alpha" maskUnits="userSpaceOnUse" x="21" y="21" width="38" height="38">
<rect x="21" y="21" width="38" height="38" fill="#D9D9D9"/>
</mask>
<g mask="url(#mask0_98_1349)">
<path d="M38.0331 45.0544C38.5242 45.5457 39.1545 45.7695 39.924 45.7257C40.6932 45.6821 41.2545 45.4056 41.6079 44.896L49.9263 33.3013L38.2706 41.5588C37.7407 41.9121 37.4458 42.4602 37.3859 43.203C37.326 43.9462 37.5417 44.5633 38.0331 45.0544ZM40 28.9166C41.4553 28.9166 42.7803 29.0937 43.975 29.4478C45.1696 29.8022 46.3597 30.3437 47.5454 31.0723L46.0899 32.0588C45.1581 31.5494 44.1933 31.1623 43.1956 30.8974C42.1978 30.6324 41.1326 30.5 40 30.5C36.4903 30.5 33.5017 31.7336 31.0344 34.201C28.567 36.6684 27.3333 39.6569 27.3333 43.1666C27.3333 44.275 27.4851 45.3701 27.7885 46.452C28.092 47.534 28.5208 48.55 29.075 49.5H50.925C51.5319 48.4972 51.974 47.4548 52.251 46.3729C52.5281 45.2909 52.6667 44.1694 52.6667 43.0083C52.6667 42.0583 52.5444 41.0585 52.2997 40.0091C52.0551 38.9596 51.6678 37.9821 51.138 37.0767L52.1248 35.6213C52.8961 36.9428 53.4416 38.1863 53.7611 39.3516C54.081 40.5167 54.2439 41.7295 54.25 42.9901C54.2561 44.352 54.1049 45.6228 53.7964 46.8024C53.4879 47.9817 53.0077 49.1712 52.3559 50.3708C52.2282 50.5819 52.0354 50.7534 51.7776 50.8854C51.5198 51.0173 51.2356 51.0833 50.925 51.0833H29.075C28.7847 51.0833 28.5158 51.0123 28.2683 50.8703C28.0205 50.7281 27.8124 50.5209 27.6441 50.2489C27.1202 49.3253 26.6736 48.2834 26.3042 47.1234C25.9347 45.9633 25.75 44.6444 25.75 43.1666C25.75 41.2199 26.1192 39.3827 26.8575 37.655C27.5959 35.9271 28.6037 34.4137 29.8809 33.1148C31.1584 31.8162 32.669 30.7918 34.4128 30.0416C36.1563 29.2916 38.0187 28.9166 40 28.9166Z" fill="#191314"/>
</g>
</svg>
