<?xml version="1.0" encoding="UTF-8"?>
<svg id="Layer_1" xmlns="http://www.w3.org/2000/svg" version="1.1" viewBox="0 0 131 51">
  <!-- Generator: Adobe Illustrator 29.0.1, SVG Export Plug-In . SVG Version: 2.1.0 Build 192)  -->
  <defs>
    <style>
      .st0 {
        fill: #fff;
      }
    </style>
  </defs>
  <path class="st0" d="M42.5,29.7c.2.6.5,1.1.9,1.5.4.4.8.7,1.4,1,.5.2,1.1.3,1.7.3s1.2-.1,1.7-.3c.5-.2,1-.6,1.4-1,.4-.4.7-.9.9-1.5.2-.6.3-1.2.3-1.9v-11h2.7v17.8h-2.6v-1.7c-.6.6-1.3,1.1-2.1,1.5-.8.3-1.7.5-2.6.5s-1.8-.2-2.6-.5c-.8-.3-1.5-.8-2.1-1.4-.6-.6-1.1-1.3-1.4-2.2-.3-.9-.5-1.8-.5-2.9v-11.2h2.7v11c0,.7.1,1.4.3,1.9Z"/>
  <path class="st0" d="M58.2,16.7v6.5c.6-.6,1.3-1.1,2.1-1.4s1.6-.5,2.5-.5,1.8.2,2.7.5c.8.4,1.5.8,2.2,1.5.6.6,1.1,1.3,1.4,2.2.4.8.5,1.7.5,2.6s-.2,1.8-.5,2.6c-.4.8-.8,1.5-1.4,2.2-.6.6-1.3,1.1-2.2,1.5-.8.4-1.7.5-2.7.5s-1.8-.2-2.5-.5c-.8-.3-1.5-.8-2.1-1.4v1.6h-2.5v-17.8h2.6ZM58.4,29.9c.2.5.5,1,1,1.4.4.4.9.7,1.4,1,.5.2,1.1.4,1.7.4s1.2-.1,1.7-.4c.5-.2,1-.6,1.4-1,.4-.4.7-.9,1-1.4.2-.5.4-1.1.4-1.8s-.1-1.2-.4-1.8c-.2-.6-.6-1-1-1.4-.4-.4-.9-.7-1.4-1-.5-.2-1.1-.3-1.7-.3s-1.2.1-1.7.3c-.5.2-1,.5-1.4,1-.4.4-.7.9-1,1.4-.2.6-.4,1.1-.4,1.8,0,.6.1,1.2.3,1.8Z"/>
  <path class="st0" d="M71,25.5c.3-.8.8-1.5,1.4-2.2.6-.6,1.3-1.1,2.1-1.5.8-.4,1.7-.5,2.6-.5s1.8.2,2.6.5c.8.3,1.5.8,2.1,1.4s1,1.3,1.3,2.1c.3.8.5,1.7.5,2.7v.8h-10.5c0,.5.3,1,.5,1.5.3.4.6.8,1,1.2.4.3.8.6,1.3.8.5.2,1,.3,1.5.3,1.5,0,2.8-.6,3.7-1.9l1.9,1.4c-.6.9-1.4,1.5-2.4,2-.9.5-2,.7-3.2.7s-1.9-.2-2.7-.5-1.6-.8-2.2-1.4c-.6-.6-1.1-1.3-1.5-2.2-.4-.8-.5-1.7-.5-2.7,0-.9.2-1.8.5-2.6ZM74.6,24.5c-.7.6-1.2,1.4-1.4,2.4h7.9c-.2-1-.7-1.8-1.4-2.4-.7-.6-1.6-.9-2.5-.9s-1.8.3-2.5.9Z"/>
  <path class="st0" d="M88.4,24.8c-.5.6-.8,1.4-.8,2.4v7.4h-2.6v-13h2.5v1.6c.3-.5.7-.9,1.3-1.2.5-.3,1.1-.5,1.8-.5h.9v2.4h-1.1c-.8,0-1.5.3-2.1.9Z"/>
</svg>