<svg width="80" height="80" viewBox="0 0 80 80" fill="none" xmlns="http://www.w3.org/2000/svg">
<rect width="80" height="80" rx="8" fill="#F2FF66"/>
<mask id="mask0_98_1345" style="mask-type:alpha" maskUnits="userSpaceOnUse" x="21" y="21" width="38" height="38">
<rect x="21" y="21" width="38" height="38" fill="#D9D9D9"/>
</mask>
<g mask="url(#mask0_98_1345)">
<path d="M40 54.25C38.039 54.25 36.1918 53.875 34.4583 53.125C32.7248 52.3748 31.2151 51.3567 29.9292 50.0708C28.6433 48.7849 27.6252 47.2752 26.875 45.5417C26.125 43.8082 25.75 41.961 25.75 40C25.75 38.033 26.125 36.1842 26.875 34.4536C27.6252 32.7233 28.6433 31.2151 29.9292 29.9292C31.2151 28.6433 32.7248 27.6252 34.4583 26.875C36.1918 26.125 38.039 25.75 40 25.75C41.967 25.75 43.8158 26.125 45.5464 26.875C47.2767 27.6252 48.7849 28.6433 50.0708 29.9292C51.3567 31.2151 52.3748 32.7233 53.125 34.4536C53.875 36.1842 54.25 38.033 54.25 40C54.25 41.961 53.875 43.8082 53.125 45.5417C52.3748 47.2752 51.3567 48.7849 50.0708 50.0708C48.7849 51.3567 47.2767 52.3748 45.5464 53.125C43.8158 53.875 41.967 54.25 40 54.25ZM40 52.6789C40.9297 51.4854 41.696 50.313 42.299 49.162C42.9017 48.0111 43.3919 46.7232 43.7695 45.2982H36.2305C36.6487 46.8042 37.1491 48.1328 37.7315 49.2839C38.3141 50.4347 39.0703 51.5664 40 52.6789ZM37.9844 52.4414C37.2455 51.5706 36.571 50.4942 35.9609 49.2122C35.3511 47.9303 34.8969 46.6256 34.5985 45.2982H28.5268C29.4343 47.2671 30.7207 48.8818 32.3861 50.1424C34.0518 51.403 35.9179 52.1694 37.9844 52.4414ZM42.0156 52.4414C44.0821 52.1694 45.9482 51.403 47.6139 50.1424C49.2793 48.8818 50.5657 47.2671 51.4732 45.2982H45.4015C45.0018 46.6459 44.4968 47.9607 43.8867 49.2427C43.2768 50.5247 42.6531 51.5909 42.0156 52.4414ZM27.8816 43.7149H34.2695C34.1497 43.0652 34.065 42.4323 34.0154 41.8161C33.9655 41.2002 33.9406 40.5948 33.9406 40C33.9406 39.4052 33.9655 38.7998 34.0154 38.1839C34.065 37.5677 34.1497 36.9348 34.2695 36.2851H27.8816C27.709 36.8332 27.5744 37.4305 27.4778 38.077C27.3815 38.7236 27.3333 39.3646 27.3333 40C27.3333 40.6354 27.3815 41.2764 27.4778 41.923C27.5744 42.5695 27.709 43.1668 27.8816 43.7149ZM35.8529 43.7149H44.1471C44.267 43.0652 44.3517 42.4424 44.4013 41.8466C44.4511 41.251 44.4761 40.6354 44.4761 40C44.4761 39.3646 44.4511 38.749 44.4013 38.1534C44.3517 37.5576 44.267 36.9348 44.1471 36.2851H35.8529C35.733 36.9348 35.6483 37.5576 35.5987 38.1534C35.5489 38.749 35.5239 39.3646 35.5239 40C35.5239 40.6354 35.5489 41.251 35.5987 41.8466C35.6483 42.4424 35.733 43.0652 35.8529 43.7149ZM45.7305 43.7149H52.1184C52.291 43.1668 52.4256 42.5695 52.5222 41.923C52.6185 41.2764 52.6667 40.6354 52.6667 40C52.6667 39.3646 52.6185 38.7236 52.5222 38.077C52.4256 37.4305 52.291 36.8332 52.1184 36.2851H45.7305C45.8503 36.9348 45.935 37.5677 45.9846 38.1839C46.0345 38.7998 46.0594 39.4052 46.0594 40C46.0594 40.5948 46.0345 41.2002 45.9846 41.8161C45.935 42.4323 45.8503 43.0652 45.7305 43.7149ZM45.4015 34.7018H51.4732C50.5454 32.6923 49.2741 31.0775 47.6594 29.8576C46.0446 28.6376 44.1634 27.8611 42.0156 27.5281C42.7545 28.5005 43.4188 29.6124 44.0086 30.8638C44.5984 32.1154 45.0627 33.3947 45.4015 34.7018ZM36.2305 34.7018H43.7695C43.3513 33.2161 42.8356 31.8724 42.2226 30.6706C41.6096 29.4689 40.8687 28.3523 40 27.3211C39.1313 28.3523 38.3904 29.4689 37.7774 30.6706C37.1644 31.8724 36.6487 33.2161 36.2305 34.7018ZM28.5268 34.7018H34.5985C34.9373 33.3947 35.4016 32.1154 35.9914 30.8638C36.5812 29.6124 37.2455 28.5005 37.9844 27.5281C35.8163 27.8611 33.93 28.6426 32.3256 29.8726C30.7209 31.1029 29.4546 32.7126 28.5268 34.7018Z" fill="#191314"/>
</g>
</svg>
